<svg width="298" height="20" viewBox="0 0 298 20" fill="none" xmlns="http://www.w3.org/2000/svg">
<g clip-path="url(#clip0_67_229)">
<path fill-rule="evenodd" clip-rule="evenodd" d="M18.3203 8.93594L14.7969 12.0109L15.8523 16.5891C15.9665 17.0784 15.7766 17.5885 15.3703 17.884C14.964 18.1796 14.4202 18.2031 13.9898 17.9438L9.99687 15.5219L6.0125 17.9438C5.58216 18.2031 5.03836 18.1796 4.63203 17.884C4.22569 17.5885 4.03581 17.0784 4.15 16.5891L5.20391 12.0156L1.67969 8.93594C1.29858 8.60724 1.15176 8.08205 1.30717 7.60337C1.46257 7.12469 1.8899 6.78589 2.39141 6.74375L7.03672 6.34141L8.85 2.01641C9.04363 1.55236 9.49718 1.25016 10 1.25016C10.5028 1.25016 10.9564 1.55236 11.15 2.01641V2.01641L12.9688 6.34141L17.6125 6.74375C18.114 6.78589 18.5413 7.12469 18.6967 7.60337C18.8522 8.08205 18.7053 8.60724 18.3242 8.93594H18.3203Z" fill="white"/>
</g>
<g clip-path="url(#clip1_67_229)">
<path fill-rule="evenodd" clip-rule="evenodd" d="M40.3203 8.93594L36.7969 12.0109L37.8523 16.5891C37.9665 17.0784 37.7766 17.5885 37.3703 17.884C36.964 18.1796 36.4202 18.2031 35.9898 17.9438L31.9969 15.5219L28.0125 17.9438C27.5822 18.2031 27.0384 18.1796 26.632 17.884C26.2257 17.5885 26.0358 17.0784 26.15 16.5891L27.2039 12.0156L23.6797 8.93594C23.2986 8.60724 23.1518 8.08205 23.3072 7.60337C23.4626 7.12469 23.8899 6.78589 24.3914 6.74375L29.0367 6.34141L30.85 2.01641C31.0436 1.55236 31.4972 1.25016 32 1.25016C32.5028 1.25016 32.9564 1.55236 33.15 2.01641V2.01641L34.9688 6.34141L39.6125 6.74375C40.114 6.78589 40.5413 7.12469 40.6967 7.60337C40.8522 8.08205 40.7053 8.60724 40.3242 8.93594H40.3203Z" fill="white"/>
</g>
<g clip-path="url(#clip2_67_229)">
<path fill-rule="evenodd" clip-rule="evenodd" d="M62.3203 8.93594L58.7969 12.0109L59.8523 16.5891C59.9665 17.0784 59.7766 17.5885 59.3703 17.884C58.964 18.1796 58.4202 18.2031 57.9898 17.9438L53.9969 15.5219L50.0125 17.9438C49.5822 18.2031 49.0384 18.1796 48.632 17.884C48.2257 17.5885 48.0358 17.0784 48.15 16.5891L49.2039 12.0156L45.6797 8.93594C45.2986 8.60724 45.1518 8.08205 45.3072 7.60337C45.4626 7.12469 45.8899 6.78589 46.3914 6.74375L51.0367 6.34141L52.85 2.01641C53.0436 1.55236 53.4972 1.25016 54 1.25016C54.5028 1.25016 54.9564 1.55236 55.15 2.01641V2.01641L56.9688 6.34141L61.6125 6.74375C62.114 6.78589 62.5413 7.12469 62.6967 7.60337C62.8522 8.08205 62.7053 8.60724 62.3242 8.93594H62.3203Z" fill="white"/>
</g>
<g clip-path="url(#clip3_67_229)">
<path fill-rule="evenodd" clip-rule="evenodd" d="M84.3203 8.93594L80.7969 12.0109L81.8523 16.5891C81.9665 17.0784 81.7766 17.5885 81.3703 17.884C80.964 18.1796 80.4202 18.2031 79.9898 17.9438L75.9969 15.5219L72.0125 17.9438C71.5822 18.2031 71.0384 18.1796 70.632 17.884C70.2257 17.5885 70.0358 17.0784 70.15 16.5891L71.2039 12.0156L67.6797 8.93594C67.2986 8.60724 67.1518 8.08205 67.3072 7.60337C67.4626 7.12469 67.8899 6.78589 68.3914 6.74375L73.0367 6.34141L74.85 2.01641C75.0436 1.55236 75.4972 1.25016 76 1.25016C76.5028 1.25016 76.9564 1.55236 77.15 2.01641V2.01641L78.9688 6.34141L83.6125 6.74375C84.114 6.78589 84.5413 7.12469 84.6967 7.60337C84.8522 8.08205 84.7053 8.60724 84.3242 8.93594H84.3203Z" fill="white"/>
</g>
<g clip-path="url(#clip4_67_229)">
<path fill-rule="evenodd" clip-rule="evenodd" d="M106.688 7.60078C106.533 7.12387 106.108 6.78556 105.609 6.74141L100.969 6.34141L99.15 2.01641V2.01641C98.9564 1.55236 98.5028 1.25016 98 1.25016C97.4972 1.25016 97.0436 1.55236 96.85 2.01641L95.0367 6.34141L90.3914 6.74375C89.8899 6.78589 89.4626 7.12469 89.3072 7.60337C89.1518 8.08205 89.2986 8.60724 89.6797 8.93594L93.2039 12.0156L92.1477 16.5891C92.0335 17.0784 92.2234 17.5885 92.6297 17.884C93.036 18.1796 93.5798 18.2031 94.0102 17.9438L97.9945 15.5219L101.988 17.9438C102.418 18.2031 102.962 18.1796 103.368 17.884C103.774 17.5885 103.964 17.0784 103.85 16.5891L102.795 12.0109L106.318 8.93594C106.699 8.60609 106.845 8.07963 106.688 7.60078V7.60078ZM105.498 7.99141L101.975 11.0664C101.626 11.3704 101.473 11.8427 101.578 12.2937L102.637 16.875V16.875L98.6469 14.4531C98.25 14.2115 97.7515 14.2115 97.3547 14.4531L93.3703 16.875V16.875L94.4219 12.2969C94.5272 11.8458 94.3745 11.3735 94.025 11.0695L90.5 7.99609C90.4997 7.99376 90.4997 7.9914 90.5 7.98906L95.1438 7.5875C95.6058 7.54677 96.0073 7.25353 96.1867 6.82578L98 2.50625L99.8125 6.82578C99.9919 7.25353 100.393 7.54677 100.855 7.5875L105.5 7.98906C105.5 7.98906 105.5 7.99375 105.5 7.99453L105.498 7.99141Z" fill="#547873"/>
</g>
<defs>
<clipPath id="clip0_67_229">
<rect width="20" height="20" fill="white"/>
</clipPath>
<clipPath id="clip1_67_229">
<rect width="20" height="20" fill="white" transform="translate(22)"/>
</clipPath>
<clipPath id="clip2_67_229">
<rect width="20" height="20" fill="white" transform="translate(44)"/>
</clipPath>
<clipPath id="clip3_67_229">
<rect width="20" height="20" fill="white" transform="translate(66)"/>
</clipPath>
<clipPath id="clip4_67_229">
<rect width="20" height="20" fill="white" transform="translate(88)"/>
</clipPath>
</defs>
</svg>
