<svg width="298" height="20" viewBox="0 0 298 20" fill="none" xmlns="http://www.w3.org/2000/svg">
<g clip-path="url(#clip0_67_107)">
<path fill-rule="evenodd" clip-rule="evenodd" d="M18.3203 8.93594L14.7969 12.0109L15.8523 16.5891C15.9665 17.0784 15.7766 17.5885 15.3703 17.884C14.964 18.1796 14.4202 18.2031 13.9898 17.9438L9.99687 15.5219L6.0125 17.9438C5.58216 18.2031 5.03836 18.1796 4.63203 17.884C4.22569 17.5885 4.03581 17.0784 4.15 16.5891L5.20391 12.0156L1.67969 8.93594C1.29858 8.60724 1.15176 8.08205 1.30717 7.60337C1.46257 7.12469 1.8899 6.78589 2.39141 6.74375L7.03672 6.34141L8.85 2.01641C9.04363 1.55236 9.49718 1.25016 10 1.25016C10.5028 1.25016 10.9564 1.55236 11.15 2.01641V2.01641L12.9688 6.34141L17.6125 6.74375C18.114 6.78589 18.5413 7.12469 18.6967 7.60337C18.8522 8.08205 18.7053 8.60724 18.3242 8.93594H18.3203Z" fill="white"/>
</g>
<g clip-path="url(#clip1_67_107)">
<path fill-rule="evenodd" clip-rule="evenodd" d="M40.3203 8.93594L36.7969 12.0109L37.8523 16.5891C37.9665 17.0784 37.7766 17.5885 37.3703 17.884C36.964 18.1796 36.4202 18.2031 35.9898 17.9438L31.9969 15.5219L28.0125 17.9438C27.5822 18.2031 27.0384 18.1796 26.632 17.884C26.2257 17.5885 26.0358 17.0784 26.15 16.5891L27.2039 12.0156L23.6797 8.93594C23.2986 8.60724 23.1518 8.08205 23.3072 7.60337C23.4626 7.12469 23.8899 6.78589 24.3914 6.74375L29.0367 6.34141L30.85 2.01641C31.0436 1.55236 31.4972 1.25016 32 1.25016C32.5028 1.25016 32.9564 1.55236 33.15 2.01641V2.01641L34.9688 6.34141L39.6125 6.74375C40.114 6.78589 40.5413 7.12469 40.6967 7.60337C40.8522 8.08205 40.7053 8.60724 40.3242 8.93594H40.3203Z" fill="white"/>
</g>
<g clip-path="url(#clip2_67_107)">
<path fill-rule="evenodd" clip-rule="evenodd" d="M62.3203 8.93594L58.7969 12.0109L59.8523 16.5891C59.9665 17.0784 59.7766 17.5885 59.3703 17.884C58.964 18.1796 58.4202 18.2031 57.9898 17.9438L53.9969 15.5219L50.0125 17.9438C49.5822 18.2031 49.0384 18.1796 48.632 17.884C48.2257 17.5885 48.0358 17.0784 48.15 16.5891L49.2039 12.0156L45.6797 8.93594C45.2986 8.60724 45.1518 8.08205 45.3072 7.60337C45.4626 7.12469 45.8899 6.78589 46.3914 6.74375L51.0367 6.34141L52.85 2.01641C53.0436 1.55236 53.4972 1.25016 54 1.25016C54.5028 1.25016 54.9564 1.55236 55.15 2.01641V2.01641L56.9688 6.34141L61.6125 6.74375C62.114 6.78589 62.5413 7.12469 62.6967 7.60337C62.8522 8.08205 62.7053 8.60724 62.3242 8.93594H62.3203Z" fill="white"/>
</g>
<g clip-path="url(#clip3_67_107)">
<path fill-rule="evenodd" clip-rule="evenodd" d="M84.3203 8.93594L80.7969 12.0109L81.8523 16.5891C81.9665 17.0784 81.7766 17.5885 81.3703 17.884C80.964 18.1796 80.4202 18.2031 79.9898 17.9438L75.9969 15.5219L72.0125 17.9438C71.5822 18.2031 71.0384 18.1796 70.632 17.884C70.2257 17.5885 70.0358 17.0784 70.15 16.5891L71.2039 12.0156L67.6797 8.93594C67.2986 8.60724 67.1518 8.08205 67.3072 7.60337C67.4626 7.12469 67.8899 6.78589 68.3914 6.74375L73.0367 6.34141L74.85 2.01641C75.0436 1.55236 75.4972 1.25016 76 1.25016C76.5028 1.25016 76.9564 1.55236 77.15 2.01641V2.01641L78.9688 6.34141L83.6125 6.74375C84.114 6.78589 84.5413 7.12469 84.6967 7.60337C84.8522 8.08205 84.7053 8.60724 84.3242 8.93594H84.3203Z" fill="white"/>
</g>
<g clip-path="url(#clip4_67_107)">
<path fill-rule="evenodd" clip-rule="evenodd" d="M106.32 8.93594L102.797 12.0109L103.852 16.5891C103.967 17.0784 103.777 17.5885 103.37 17.884C102.964 18.1796 102.42 18.2031 101.99 17.9438L97.9969 15.5219L94.0125 17.9438C93.5822 18.2031 93.0384 18.1796 92.632 17.884C92.2257 17.5885 92.0358 17.0784 92.15 16.5891L93.2039 12.0156L89.6797 8.93594C89.2986 8.60724 89.1518 8.08205 89.3072 7.60337C89.4626 7.12469 89.8899 6.78589 90.3914 6.74375L95.0367 6.34141L96.85 2.01641C97.0436 1.55236 97.4972 1.25016 98 1.25016C98.5028 1.25016 98.9564 1.55236 99.15 2.01641V2.01641L100.969 6.34141L105.612 6.74375C106.114 6.78589 106.541 7.12469 106.697 7.60337C106.852 8.08205 106.705 8.60724 106.324 8.93594H106.32Z" fill="white"/>
</g>
<defs>
<clipPath id="clip0_67_107">
<rect width="20" height="20" fill="white"/>
</clipPath>
<clipPath id="clip1_67_107">
<rect width="20" height="20" fill="white" transform="translate(22)"/>
</clipPath>
<clipPath id="clip2_67_107">
<rect width="20" height="20" fill="white" transform="translate(44)"/>
</clipPath>
<clipPath id="clip3_67_107">
<rect width="20" height="20" fill="white" transform="translate(66)"/>
</clipPath>
<clipPath id="clip4_67_107">
<rect width="20" height="20" fill="white" transform="translate(88)"/>
</clipPath>
</defs>
</svg>
