<svg width="24" height="24" viewBox="0 0 24 24" fill="none" xmlns="http://www.w3.org/2000/svg">
<g clip-path="url(#clip0_1_59)">
<path fill-rule="evenodd" clip-rule="evenodd" d="M14.7872 10.6059C14.6746 10.4416 14.632 10.2393 14.6688 10.0436C14.7055 9.84784 14.8186 9.67476 14.9831 9.5625L21.3263 5.22188C21.6676 5.0107 22.1147 5.10569 22.3407 5.4374C22.5667 5.7691 22.4914 6.21994 22.17 6.46031L15.8259 10.8009C15.7016 10.8867 15.5541 10.9324 15.4031 10.9322C15.1567 10.9312 14.9264 10.8093 14.7872 10.6059ZM22.3687 18.5831C22.1347 18.9248 21.668 19.0121 21.3263 18.7781L12.75 12.9094L8.76469 15.6356C9.39424 17.2344 8.72218 19.0509 7.20367 19.8549C5.68516 20.6589 3.80499 20.1938 2.83654 18.7745C1.8681 17.3552 2.12056 15.4348 3.42294 14.314C4.72532 13.1933 6.66184 13.2299 7.92094 14.3991L11.4216 12L7.91625 9.60094C6.66143 10.7641 4.73319 10.7992 3.4368 9.68262C2.14042 8.566 1.88946 6.65384 2.85382 5.24052C3.81817 3.8272 5.69019 3.36361 7.20264 4.16357C8.7151 4.96353 9.38549 6.77182 8.76 8.36438L22.1663 17.5397C22.3318 17.6509 22.4463 17.8235 22.4843 18.0193C22.5223 18.2152 22.4807 18.418 22.3687 18.5831ZM7.5 16.875C7.50019 15.9805 6.86846 15.2104 5.99116 15.0357C5.11386 14.861 4.23533 15.3304 3.89286 16.1568C3.55039 16.9831 3.83936 17.9363 4.58305 18.4334C5.32673 18.9305 6.318 18.8331 6.95062 18.2006C7.3036 17.85 7.50145 17.3725 7.5 16.875ZM6.95062 8.44969C7.48699 7.91349 7.64751 7.10697 7.35733 6.40626C7.06715 5.70555 6.38342 5.24866 5.625 5.24866C4.86658 5.24866 4.18285 5.70555 3.89267 6.40626C3.60249 7.10697 3.76301 7.91349 4.29938 8.44969C4.64913 8.80468 5.12665 9.00456 5.625 9.00456C6.12335 9.00456 6.60087 8.80468 6.95062 8.44969Z" fill="white"/>
</g>
<defs>
<clipPath id="clip0_1_59">
<rect width="24" height="24" fill="white"/>
</clipPath>
</defs>
</svg>
