<svg width="24" height="24" viewBox="0 0 24 24" fill="none" xmlns="http://www.w3.org/2000/svg">
<g clip-path="url(#clip0_1_73)">
<path fill-rule="evenodd" clip-rule="evenodd" d="M20.1675 11.5913C20.299 11.3517 20.2899 11.0597 20.1436 10.8288C19.9974 10.598 19.7372 10.465 19.4645 10.4816C19.1917 10.4983 18.9496 10.6619 18.8325 10.9087C18.1392 12.2444 17.0581 13.3392 15.7312 14.0494L14.1769 10.5506C15.3909 9.68376 15.9757 8.17978 15.6661 6.72051C15.3565 5.26125 14.2114 4.12425 12.75 3.825V2.25C12.75 1.83579 12.4142 1.5 12 1.5C11.5858 1.5 11.25 1.83579 11.25 2.25V3.825C9.78858 4.12425 8.64351 5.26125 8.33392 6.72051C8.02433 8.17978 8.6091 9.68376 9.82312 10.5506L5.31469 20.6953C5.20435 20.9404 5.23359 21.2258 5.39136 21.4434C5.54912 21.661 5.81127 21.7776 6.07853 21.7489C6.34578 21.7203 6.57727 21.5508 6.68531 21.3047L9.04219 16.0022C9.99311 16.3333 10.9931 16.5016 12 16.5C13.0074 16.4988 14.008 16.3339 14.9625 16.0116L17.3147 21.3047C17.4842 21.6811 17.926 21.8498 18.3033 21.6821C18.6805 21.5144 18.8513 21.0733 18.6853 20.6953L16.3416 15.4219C17.9805 14.5689 19.3165 13.2312 20.1675 11.5913ZM12 5.25C13.2426 5.25 14.25 6.25736 14.25 7.5C14.25 8.74264 13.2426 9.75 12 9.75C10.7574 9.75 9.75 8.74264 9.75 7.5C9.75 6.25736 10.7574 5.25 12 5.25ZM12 15C11.2037 15.001 10.4125 14.8744 9.65625 14.625L11.1956 11.1619C11.7267 11.2794 12.277 11.2794 12.8081 11.1619L14.3531 14.6362C13.592 14.8772 12.7984 14.9999 12 15Z" fill="white"/>
</g>
<defs>
<clipPath id="clip0_1_73">
<rect width="24" height="24" fill="white"/>
</clipPath>
</defs>
</svg>
