<svg width="40" height="40" viewBox="0 0 40 40" fill="none" xmlns="http://www.w3.org/2000/svg">
<rect width="40" height="40" rx="8" fill="#293836"/>
<g clip-path="url(#clip0_1_31)">
<path fill-rule="evenodd" clip-rule="evenodd" d="M20 11.875C15.5127 11.875 11.875 15.5127 11.875 20C11.875 24.4873 15.5127 28.125 20 28.125C24.4873 28.125 28.125 24.4873 28.125 20C28.1203 15.5146 24.4853 11.8797 20 11.875ZM20.625 26.8461V21.875H22.5C22.8452 21.875 23.125 21.5952 23.125 21.25C23.125 20.9048 22.8452 20.625 22.5 20.625H20.625V18.75C20.625 18.0596 21.1846 17.5 21.875 17.5H23.125C23.4702 17.5 23.75 17.2202 23.75 16.875C23.75 16.5298 23.4702 16.25 23.125 16.25H21.875C20.4943 16.25 19.375 17.3693 19.375 18.75V20.625H17.5C17.1548 20.625 16.875 20.9048 16.875 21.25C16.875 21.5952 17.1548 21.875 17.5 21.875H19.375V26.8461C15.7149 26.512 12.9649 23.3582 13.1321 19.6867C13.2994 16.0152 16.3247 13.1246 20 13.1246C23.6753 13.1246 26.7006 16.0152 26.8679 19.6867C27.0351 23.3582 24.2851 26.512 20.625 26.8461Z" fill="white"/>
</g>
<defs>
<clipPath id="clip0_1_31">
<rect width="20" height="20" fill="white" transform="translate(10 10)"/>
</clipPath>
</defs>
</svg>
