<svg width="40" height="40" viewBox="0 0 40 40" fill="none" xmlns="http://www.w3.org/2000/svg">
<rect width="40" height="40" rx="8" fill="#293836"/>
<g clip-path="url(#clip0_1_26)">
<path fill-rule="evenodd" clip-rule="evenodd" d="M20 16.25C17.9289 16.25 16.25 17.9289 16.25 20C16.25 22.0711 17.9289 23.75 20 23.75C22.0711 23.75 23.75 22.0711 23.75 20C23.7478 17.9298 22.0702 16.2522 20 16.25ZM20 22.5C18.6193 22.5 17.5 21.3807 17.5 20C17.5 18.6193 18.6193 17.5 20 17.5C21.3807 17.5 22.5 18.6193 22.5 20C22.5 21.3807 21.3807 22.5 20 22.5ZM23.75 11.875H16.25C13.8348 11.8776 11.8776 13.8348 11.875 16.25V23.75C11.8776 26.1652 13.8348 28.1224 16.25 28.125H23.75C26.1652 28.1224 28.1224 26.1652 28.125 23.75V16.25C28.1224 13.8348 26.1652 11.8776 23.75 11.875ZM26.875 23.75C26.875 25.4759 25.4759 26.875 23.75 26.875H16.25C14.5241 26.875 13.125 25.4759 13.125 23.75V16.25C13.125 14.5241 14.5241 13.125 16.25 13.125H23.75C25.4759 13.125 26.875 14.5241 26.875 16.25V23.75ZM25 15.9375C25 16.4553 24.5803 16.875 24.0625 16.875C23.5447 16.875 23.125 16.4553 23.125 15.9375C23.125 15.4197 23.5447 15 24.0625 15C24.5803 15 25 15.4197 25 15.9375Z" fill="white"/>
</g>
<defs>
<clipPath id="clip0_1_26">
<rect width="20" height="20" fill="white" transform="translate(10 10)"/>
</clipPath>
</defs>
</svg>
