<svg width="24" height="24" viewBox="0 0 24 24" fill="none" xmlns="http://www.w3.org/2000/svg">
<g clip-path="url(#clip0_1_87)">
<path fill-rule="evenodd" clip-rule="evenodd" d="M22.0613 7.62844L16.3716 1.93969C16.0902 1.65831 15.7087 1.50023 15.3108 1.50023C14.9129 1.50023 14.5313 1.65831 14.25 1.93969L9.22219 6.98344C8.22281 6.67031 5.94094 6.2925 3.55969 8.21531C3.22774 8.48223 3.02493 8.87769 3.00186 9.30302C2.97878 9.72835 3.13763 10.1434 3.43875 10.4447L7.96875 14.9728L3.96937 18.9694C3.7798 19.1589 3.70576 19.4353 3.77515 19.6942C3.84454 19.9532 4.04681 20.1555 4.30578 20.2248C4.56474 20.2942 4.84105 20.2202 5.03062 20.0306L9.02719 16.0312L13.5544 20.5584C13.8355 20.8407 14.2173 20.9996 14.6156 21C14.6513 21 14.6859 21 14.7216 21C15.1542 20.97 15.5525 20.7534 15.8128 20.4066C17.6541 17.9597 17.4769 15.9703 17.0494 14.7816L22.0622 9.75C22.3434 9.46856 22.5014 9.08691 22.5012 8.68902C22.501 8.29114 22.3428 7.90963 22.0613 7.62844ZM21 8.68969L15.6309 14.0766C15.4036 14.3048 15.3473 14.6527 15.4913 14.9409C16.3781 16.7156 15.3225 18.5587 14.6156 19.4991L4.5 9.3825C5.6325 8.46937 6.71625 8.22844 7.545 8.22844C8.07087 8.22126 8.5924 8.32442 9.07594 8.53125C9.36527 8.67605 9.71486 8.61899 9.94312 8.38969L15.3112 3L21 8.68875V8.68969Z" fill="white"/>
</g>
<defs>
<clipPath id="clip0_1_87">
<rect width="24" height="24" fill="white"/>
</clipPath>
</defs>
</svg>
