<svg width="24" height="24" viewBox="0 0 24 24" fill="none" xmlns="http://www.w3.org/2000/svg">
<g clip-path="url(#clip0_1_245)">
<path fill-rule="evenodd" clip-rule="evenodd" d="M17.5856 13.5787L14.5856 12.0787C14.3453 11.959 14.0592 11.9768 13.8356 12.1256L12.4584 13.0444C11.8262 12.6968 11.306 12.1766 10.9584 11.5444L11.8772 10.1672C12.026 9.94361 12.0438 9.65755 11.9241 9.41719L10.4241 6.41719C10.2972 6.16104 10.0358 5.99926 9.75 6C7.67893 6 6 7.67893 6 9.75C6.00517 14.3042 9.69579 17.9948 14.25 18C16.3211 18 18 16.3211 18 14.25C18.0002 13.9658 17.8398 13.7059 17.5856 13.5787ZM14.25 16.5C10.5238 16.4959 7.50413 13.4762 7.5 9.75C7.4997 8.67735 8.25664 7.75363 9.30844 7.54313L10.3847 9.69938L9.46875 11.0625C9.32974 11.271 9.30407 11.5352 9.40031 11.7666C9.93692 13.0419 10.9515 14.0565 12.2269 14.5931C12.459 14.6937 12.7262 14.6704 12.9375 14.5312L14.3072 13.6181L16.4634 14.6944C16.2513 15.7475 15.3243 16.5037 14.25 16.5ZM12 2.25C8.57597 2.24925 5.40249 4.04466 3.63954 6.97997C1.87659 9.91527 1.78258 13.5602 3.39188 16.5825L2.32781 19.7747C2.14805 20.3137 2.28831 20.9081 2.69011 21.3099C3.09191 21.7117 3.68626 21.852 4.22531 21.6722L7.4175 20.6081C10.9994 22.5133 15.3867 22.0013 18.4336 19.3225C21.4806 16.6438 22.5503 12.3582 21.1197 8.56183C19.689 4.76543 16.057 2.25166 12 2.25ZM12 20.25C10.5497 20.251 9.12478 19.8691 7.86938 19.1428C7.68344 19.035 7.46018 19.0121 7.25625 19.08L3.75 20.25L4.91906 16.7437C4.98723 16.5399 4.9647 16.3167 4.85719 16.1306C2.9874 12.8979 3.52233 8.8124 6.16133 6.17005C8.80034 3.52772 12.8852 2.98763 16.1202 4.85333C19.3553 6.71903 20.9336 10.5252 19.9682 14.1327C19.0028 17.7402 15.7345 20.2494 12 20.25Z" fill="#9EBAB5"/>
</g>
<defs>
<clipPath id="clip0_1_245">
<rect width="24" height="24" fill="white"/>
</clipPath>
</defs>
</svg>
