<svg width="40" height="40" viewBox="0 0 40 40" fill="none" xmlns="http://www.w3.org/2000/svg">
<rect width="40" height="40" rx="8" fill="#293836"/>
<g clip-path="url(#clip0_1_36)">
<path fill-rule="evenodd" clip-rule="evenodd" d="M24.6547 21.3156L22.1547 20.0656C21.9544 19.9658 21.716 19.9807 21.5297 20.1047L20.382 20.8703C19.8552 20.5807 19.4216 20.1471 19.132 19.6203L19.8977 18.4727C20.0216 18.2863 20.0365 18.048 19.9367 17.8477L18.6867 15.3477C18.581 15.1342 18.3632 14.9994 18.125 15C16.3991 15 15 16.3991 15 18.125C15.0043 21.9202 18.0798 24.9957 21.875 25C23.6009 25 25 23.6009 25 21.875C25.0002 21.6382 24.8665 21.4216 24.6547 21.3156ZM21.875 23.75C18.7698 23.7466 16.2534 21.2302 16.25 18.125C16.2498 17.2311 16.8805 16.4614 17.757 16.2859L18.6539 18.0828L17.8906 19.2188C17.7748 19.3925 17.7534 19.6126 17.8336 19.8055C18.2808 20.8683 19.1263 21.7138 20.1891 22.1609C20.3825 22.2447 20.6052 22.2253 20.7812 22.1094L21.9227 21.3484L23.7195 22.2453C23.5427 23.1229 22.7702 23.7531 21.875 23.75ZM20 11.875C17.1466 11.8744 14.5021 13.3706 13.0329 15.8166C11.5638 18.2627 11.4855 21.3002 12.8266 23.8188L11.9398 26.4789C11.79 26.9281 11.9069 27.4234 12.2418 27.7582C12.5766 28.0931 13.0719 28.21 13.5211 28.0602L16.1813 27.1734C19.1662 28.761 22.8222 28.3344 25.3614 26.1021C27.9005 23.8698 28.7919 20.2985 27.5997 17.1349C26.4075 13.9712 23.3808 11.8764 20 11.875ZM20 26.875C18.7914 26.8758 17.604 26.5575 16.5578 25.9523C16.4029 25.8625 16.2168 25.8434 16.0469 25.9L13.125 26.875L14.0992 23.9531C14.156 23.7833 14.1372 23.5972 14.0477 23.4422C12.4895 20.7483 12.9353 17.3437 15.1344 15.1417C17.3336 12.9398 20.7377 12.4897 23.4335 14.0444C26.1294 15.5992 27.4447 18.771 26.6402 21.7773C25.8357 24.7835 23.1121 26.8745 20 26.875Z" fill="white"/>
</g>
<defs>
<clipPath id="clip0_1_36">
<rect width="20" height="20" fill="white" transform="translate(10 10)"/>
</clipPath>
</defs>
</svg>
